<mxfile host="app.diagrams.net" agent="Mozilla/5.0 (Windows NT 10.0; Win64; x64) AppleWebKit/537.36 (KHTML, like Gecko) Chrome/133.0.0.0 Safari/537.36" version="26.0.16">
  <diagram name="Page-1" id="mO82njantHDLKHRQ-k5d">
    <mxGraphModel dx="3350" dy="2144" grid="1" gridSize="10" guides="1" tooltips="1" connect="1" arrows="1" fold="1" page="1" pageScale="1" pageWidth="850" pageHeight="1100" math="0" shadow="0" adaptiveColors="auto">
      <root>
        <mxCell id="0" />
        <mxCell id="1" parent="0" />
        <mxCell id="QNtNl15MAR7CSPH9NVyW-23" style="edgeStyle=orthogonalEdgeStyle;rounded=0;orthogonalLoop=1;jettySize=auto;html=1;exitX=1;exitY=0.5;exitDx=0;exitDy=0;entryX=0;entryY=0.5;entryDx=0;entryDy=0;" parent="1" edge="1">
          <mxGeometry relative="1" as="geometry">
            <mxPoint x="90" y="200" as="sourcePoint" />
            <mxPoint x="270" y="200" as="targetPoint" />
          </mxGeometry>
        </mxCell>
        <mxCell id="cUz-XMenobxG8sgXJsmb-2" value="&lt;font style=&quot;font-size: 12px;&quot;&gt;Clean data and&lt;/font&gt;&lt;div&gt;&lt;font style=&quot;font-size: 12px;&quot;&gt;prepare for NLP.&lt;/font&gt;&lt;/div&gt;&lt;div&gt;&lt;font style=&quot;font-size: 12px;&quot;&gt;Filter HS codes to&lt;/font&gt;&lt;/div&gt;&lt;div&gt;&lt;font style=&quot;font-size: 12px;&quot;&gt;2-digit level.&lt;/font&gt;&lt;/div&gt;" style="edgeLabel;html=1;align=center;verticalAlign=middle;resizable=0;points=[];" parent="QNtNl15MAR7CSPH9NVyW-23" vertex="1" connectable="0">
          <mxGeometry x="-0.2367" y="4" relative="1" as="geometry">
            <mxPoint x="21" y="4" as="offset" />
          </mxGeometry>
        </mxCell>
        <mxCell id="QNtNl15MAR7CSPH9NVyW-22" style="edgeStyle=orthogonalEdgeStyle;rounded=0;orthogonalLoop=1;jettySize=auto;html=1;exitX=1;exitY=0.5;exitDx=0;exitDy=0;" parent="1" source="e2CYN-9ukdaPcZ9q1EN0-4" edge="1">
          <mxGeometry relative="1" as="geometry">
            <mxPoint x="470" y="200" as="sourcePoint" />
            <mxPoint x="630" y="200" as="targetPoint" />
          </mxGeometry>
        </mxCell>
        <mxCell id="cUz-XMenobxG8sgXJsmb-3" value="&lt;span style=&quot;font-size: 12px; background-color: rgb(251, 251, 251);&quot;&gt;Save fine-tuned model&lt;/span&gt;&lt;div style=&quot;font-size: 12px; background-color: rgb(251, 251, 251);&quot;&gt;&amp;nbsp;parameters&lt;/div&gt;" style="edgeLabel;html=1;align=center;verticalAlign=middle;resizable=0;points=[];" parent="QNtNl15MAR7CSPH9NVyW-22" vertex="1" connectable="0">
          <mxGeometry x="0.1457" y="-1" relative="1" as="geometry">
            <mxPoint as="offset" />
          </mxGeometry>
        </mxCell>
        <mxCell id="QNtNl15MAR7CSPH9NVyW-26" value="" style="edgeStyle=orthogonalEdgeStyle;rounded=0;orthogonalLoop=1;jettySize=auto;html=1;" parent="1" edge="1">
          <mxGeometry relative="1" as="geometry">
            <mxPoint x="780" y="200" as="sourcePoint" />
            <mxPoint x="950.0000000000005" y="200.07692307692287" as="targetPoint" />
          </mxGeometry>
        </mxCell>
        <mxCell id="cUz-XMenobxG8sgXJsmb-4" value="&lt;span style=&quot;font-size: 12px; background-color: rgb(251, 251, 251);&quot;&gt;Save NY/NJ HS code&amp;nbsp;&lt;/span&gt;&lt;div style=&quot;font-size: 12px; background-color: rgb(251, 251, 251);&quot;&gt;labelled output&lt;/div&gt;" style="edgeLabel;html=1;align=center;verticalAlign=middle;resizable=0;points=[];" parent="QNtNl15MAR7CSPH9NVyW-26" vertex="1" connectable="0">
          <mxGeometry x="0.0376" y="1" relative="1" as="geometry">
            <mxPoint y="1" as="offset" />
          </mxGeometry>
        </mxCell>
        <mxCell id="e2CYN-9ukdaPcZ9q1EN0-1" value="&lt;span style=&quot;color: rgb(0, 0, 0); font-family: Helvetica; font-size: 12px; font-style: normal; font-variant-ligatures: normal; font-variant-caps: normal; font-weight: 400; letter-spacing: normal; orphans: 2; text-align: center; text-indent: 0px; text-transform: none; widows: 2; word-spacing: 0px; -webkit-text-stroke-width: 0px; white-space: normal; background-color: rgb(251, 251, 251); text-decoration-thickness: initial; text-decoration-style: initial; text-decoration-color: initial; display: inline !important; float: none;&quot;&gt;Webscrape ~500,000 records from India Import Genius Shipping Manifest Dataset&amp;nbsp;&lt;/span&gt;&lt;br style=&quot;forced-color-adjust: none; color: rgb(0, 0, 0); font-family: Helvetica; font-size: 12px; font-style: normal; font-variant-ligatures: normal; font-variant-caps: normal; font-weight: 400; letter-spacing: normal; orphans: 2; text-align: center; text-indent: 0px; text-transform: none; widows: 2; word-spacing: 0px; -webkit-text-stroke-width: 0px; white-space: normal; background-color: rgb(251, 251, 251); text-decoration-thickness: initial; text-decoration-style: initial; text-decoration-color: initial;&quot;&gt;" style="text;whiteSpace=wrap;html=1;" vertex="1" parent="1">
          <mxGeometry x="-20" y="70" width="140" height="40" as="geometry" />
        </mxCell>
        <mxCell id="e2CYN-9ukdaPcZ9q1EN0-2" value="" style="shape=image;editableCssRules=.*;verticalLabelPosition=bottom;labelBackgroundColor=default;verticalAlign=top;aspect=fixed;imageAspect=0;image=data:image/svg+xml,PHN2ZyB4bWxucz0iaHR0cDovL3d3dy53My5vcmcvMjAwMC9zdmciIHZpZXdCb3g9Ii0wLjUgLTAuNSA0MC45NDEgNDUuMDg4IiBoZWlnaHQ9IjQ1LjA4OCIgd2lkdGg9IjQwLjk0MSI+JiN4YTsJICA8c3R5bGUgdHlwZT0idGV4dC9jc3MiPi5zdDAgeyBzdG9wLWNvbG9yOiByZ2IoMTU1LCAxMTgsIDI1NSk7IH0gLnN0MSB7IHN0b3AtY29sb3I6IHJnYig3MSwgMTIsIDIzNyk7IH0gPC9zdHlsZT4mI3hhOwk8ZGVmcz4mI3hhOwkJPGxpbmVhckdyYWRpZW50IGdyYWRpZW50VW5pdHM9InVzZXJTcGFjZU9uVXNlIiB5Mj0iMzcuNzM4IiB4Mj0iMzcuNjAyIiB5MT0iNS45IiB4MT0iMy4yMTMiIGlkPSJBIj4mI3hhOwkJCTxzdG9wIGNsYXNzPSJzdDAiLz4mI3hhOwkJCTxzdG9wIGNsYXNzPSJzdDEiIG9mZnNldD0iMSIvPiYjeGE7CQk8L2xpbmVhckdyYWRpZW50PiYjeGE7CTwvZGVmcz4mI3hhOwk8cGF0aCBmaWxsPSJ1cmwoI0EpIiBkPSJNMzguMTQ3IDQuMDg4Yy43MDYuNTg4IDEuMjY1IDEuMjM1IDEuNjc2IDEuOTQxLjQxMi42NDcuNjE4IDEuNDQxLjYxOCAyLjM4MnYyNy4zNTNjMCAuODgyLS4yMzUgMS42NzYtLjcwNiAyLjM4MnMtMSAxLjM1My0xLjU4OCAxLjk0MWMtLjUyOS40NzEtMS4yMDYuOTEyLTIuMDMgMS4zMjQtLjc2NS40MTItMS41ODguNzk0LTIuNDcxIDEuMTQ3LTEuODIzLjcwNi0zLjkxMiAxLjIwNi02LjI2NSAxLjUtMi4yOTQuMzUzLTQuNzY1LjUyOS03LjQxMi41MjlzLTUuMTQ3LS4xNzYtNy41LS41MjljLTIuMjk0LS4yOTQtNC4zNTMtLjc5NC02LjE3Ni0xLjVsLTIuNDcxLS45N2E4LjY0IDguNjQgMCAwIDEtMi4wMjktMS41Qy4yNjUgMzguODUzLS41IDM3LjQxMi0uNSAzNS43NjVWOC40MTJjMC0uOTQxLjIzNS0xLjczNS43MDYtMi4zODIuNDcxLS43MDYgMS0xLjM1MyAxLjU4OC0xLjk0MSAxLjE3Ni0xIDIuNjc2LTEuODUzIDQuNS0yLjU1OUM4LjExOC44ODIgMTAuMTc2LjM4MiAxMi40NzEuMDI5YzIuMzUzLS4zNTMgNC44NTMtLjUyOSA3LjUtLjUyOXM1LjExOC4xNzYgNy40MTIuNTI5YzIuMzUzLjM1MyA0LjQ0MS44NTMgNi4yNjUgMS41Ljg4Mi4zNTMgMS43MDYuNzM1IDIuNDcxIDEuMTQ3LjgyNC4zNTMgMS41LjgyNCAyLjAzIDEuNDEyem0tMi4yMDYgMTkuMzI0Yy0yLjc2NS45NDEtNS4zODIgMS42NzYtNy44NTMgMi4yMDYtMi40MTIuNTI5LTUuMTE4Ljc5NC04LjExOC43OTQtMi42NDcgMC01LjE0Ny0uMTc3LTcuNS0uNTI5LTIuMjk0LS4zNTMtNC4zNTMtLjg1My02LjE3Ni0xLjUtLjk0MS0uMjk0LTEuNzA2LS42MTgtMi4yOTQtLjk3MXYzLjE3N2wuMTc2LjM1M2MuMDU5LjExOC4yMzUuMzI0LjUyOS42MTguNzY1LjcwNiAxLjc5NCAxLjI5NCAzLjA4OCAxLjc2NSAxLjM1My40NzEgMi43NjUuODUzIDQuMjM1IDEuMTQ3bDQuMzI0LjUyOSAzLjYxOC4xNzZhNTAuNDUgNTAuNDUgMCAwIDAgNy45NDEtLjYxOGMyLjU4OC0uNDcgNS4wMjktMS40NyA3LjMyMy0zIC4zNTMtLjIzNS41NTktLjQ0MS42MTgtLjYxOC4wNTktLjExOC4wODgtLjIzNS4wODgtLjM1M3ptMC05LjA4OGMtMi43NjUuOTQxLTUuMzgyIDEuNjc2LTcuODUzIDIuMjA2LTIuNDEyLjUyOS01LjExOC43OTQtOC4xMTguNzk0LS44ODIgMC0yLjA1OS0uMDU5LTMuNTI5LS4xNzZsLTQuNTg4LS41MjktNC41LS44ODJjLTEuNDEyLS40MTItMi41MjktLjg4Mi0zLjM1My0xLjQxMlYxNy41YzAgLjA1OS4wMjkuMTQ3LjA4OC4yNjUuMTE4LjA1OS4yMDYuMTQ3LjI2NS4yNjVsLjM1My4zNTNjLjc2NS43NjUgMS43OTQgMS4zODIgMy4wODggMS44NTMgMS4zNTMuNDcxIDIuNzY1Ljg1MyA0LjIzNSAxLjE0N2w0LjMyNC41MjkgMy42MTguMTc2YzIuNzA2IDAgNS4zNTMtLjIzNSA3Ljk0MS0uNzA2czUuMDI5LTEuNDcxIDcuMzIzLTNjLjM1My0uMjM1LjU1OS0uNDQxLjYxOC0uNjE4LjA1OS0uMTE4LjA4OC0uMjA2LjA4OC0uMjY1ek00LjcwNiA3LjUyOWMtLjI5NC4xMTgtLjUuMzI0LS42MTguNjE4LS4wNTkuMTE4LS4wODguMjA2LS4wODguMjY1cy4wMjkuMTQ3LjA4OC4yNjVjLjExOC4wNTkuMjA2LjE0Ny4yNjUuMjY1bC4zNTMuMzUzYy43NjUuNzY1IDEuNzk0IDEuMzgyIDMuMDg4IDEuODUzIDEuMzUzLjQ3MSAyLjc2NS44NTMgNC4yMzUgMS4xNDdsNC4zMjQuNTI5IDMuNjE4LjE3NmMyLjQxMiAwIDQuNjQ3LS4xNDcgNi43MDYtLjQ0MSAyLjA1OS0uMzUzIDMuODUzLS44MjQgNS4zODItMS40MTJsMy4xNzYtMS44NTNjLjM1My0uMjM1LjU1OS0uNDQxLjYxOC0uNjE4LjA1OS0uMTE4LjA4OC0uMjA2LjA4OC0uMjY1LS4wNTktLjA1OS0uMTE3LS4xNDctLjE3Ni0uMjY1cy0uMjM1LS4zMjQtLjUyOS0uNjE4Yy0uNzY1LS43NjUtMS44MjMtMS4zODItMy4xNzYtMS44NTMtMS4yOTQtLjQ3MS0yLjY3Ni0uODI0LTQuMTQ3LTEuMDU5LTEuNDcxLS4yOTQtMi45NDEtLjUtNC40MTItLjYxOGwtMy41MjktLjE3NmMtMi43MDYgMC01LjM1My4yMzUtNy45NDEuNzA2UzcgNiA0LjcwNiA3LjUyOXptMzAuNTI5IDI5LjExOGMuMzUzLS4yMzUuNTU5LS40NDEuNjE4LS42MTguMDU5LS4xMTcuMDg4LS4yMDYuMDg4LS4yNjVWMzIuNWMtLjA1OS4wNTktLjExNy4wODgtLjE3Ni4wODhzLS4wODguMDI5LS4wODguMDg4SDM1LjVsLS4xNzYuMDg4Yy0uMDU5LjA1OS0uMTE4LjA4OC0uMTc2LjA4OC0yLjY0NyAxLTUuMTQ3IDEuNzA2LTcuNSAyLjExOC0yLjI5NC4zNTMtNC44NTMuNTI5LTcuNjc2LjUyOS0uODgyIDAtMi4wNTktLjA1OS0zLjUyOS0uMTc2bC00LjU4OC0uNTI5LTQuNS0uODgyQzUuOTQxIDMzLjUgNC44MjQgMzMuMDI5IDQgMzIuNXYzLjI2NWMwIC4wNTkuMDI5LjE0Ny4wODguMjY1LjA1OS4xNzYuMjY1LjM4My42MTguNjE4Ljc2NS43NjUgMS43OTQgMS4zODIgMy4wODggMS44NTMgMS4zNTMuNDcxIDIuNzY1Ljg1MyA0LjIzNSAxLjE0N2w0LjMyNC41MjkgMy42MTguMDg4YzIuNzA2IDAgNS4zNTMtLjIwNiA3Ljk0MS0uNjE4IDIuNTg4LS40NzEgNS4wMjktMS40NyA3LjMyMy0zeiIvPiYjeGE7PC9zdmc+;" vertex="1" parent="1">
          <mxGeometry x="-10" y="147.5" width="95.67" height="105" as="geometry" />
        </mxCell>
        <mxCell id="e2CYN-9ukdaPcZ9q1EN0-3" value="&lt;span style=&quot;color: rgb(0, 0, 0); font-family: Helvetica; font-size: 12px; font-style: normal; font-variant-ligatures: normal; font-variant-caps: normal; font-weight: 400; letter-spacing: normal; orphans: 2; text-align: center; text-indent: 0px; text-transform: none; widows: 2; word-spacing: 0px; -webkit-text-stroke-width: 0px; white-space: normal; background-color: rgb(251, 251, 251); text-decoration-thickness: initial; text-decoration-style: initial; text-decoration-color: initial; display: inline !important; float: none;&quot;&gt;BERT uncased base model. Target variable is 2-digit HS code, and feature is Product Description&lt;/span&gt;" style="text;whiteSpace=wrap;html=1;" vertex="1" parent="1">
          <mxGeometry x="290" y="40" width="140" height="40" as="geometry" />
        </mxCell>
        <mxCell id="e2CYN-9ukdaPcZ9q1EN0-4" value="" style="shape=image;editableCssRules=.*;verticalLabelPosition=bottom;labelBackgroundColor=default;verticalAlign=top;aspect=fixed;imageAspect=0;image=data:image/svg+xml,PHN2ZyB4bWxucz0iaHR0cDovL3d3dy53My5vcmcvMjAwMC9zdmciIHZpZXdCb3g9Ii0wLjUgLTAuNSAyNS44NjcgMjgiIGhlaWdodD0iMjgiIHdpZHRoPSIyNS44NjciPiYjeGE7CSAgPHN0eWxlIHR5cGU9InRleHQvY3NzIj4uc3QwIHsgc3RvcC1jb2xvcjogcmdiKDM1LCAxNDksIDI1NSk7IH0gLnN0MSB7IHN0b3AtY29sb3I6IHJnYigwLCA4NywgMjEwKTsgfSA8L3N0eWxlPiYjeGE7CTxkZWZzPiYjeGE7CQk8bGluZWFyR3JhZGllbnQgZ3JhZGllbnRVbml0cz0idXNlclNwYWNlT25Vc2UiIHkyPSIyMy42MTMiIHgyPSIyMy4yMjciIHkxPSIzLjQ3NCIgeDE9IjEuODQ2IiBpZD0iQSI+JiN4YTsJCQk8c3RvcCBjbGFzcz0ic3QwIi8+JiN4YTsJCQk8c3RvcCBjbGFzcz0ic3QxIiBvZmZzZXQ9IjEiLz4mI3hhOwkJPC9saW5lYXJHcmFkaWVudD4mI3hhOwk8L2RlZnM+JiN4YTsJPHBhdGggZmlsbD0idXJsKCNBKSIgZD0iTTEzLjM5IDI3LjVoLTEuOTE1Yy0uNjU2IDAtMS4yNTctLjIxOS0xLjgwMy0uNjU2YTIuNDYgMi40NiAwIDAgMS0uOTMxLTEuNTg1bC0uMzgzLTEuODA0LTIuMzUtMS40MjMtMS42NDEuNzFhMy42MSAzLjYxIDAgMCAxLTEuMDQuMTY1Yy0uNTA5IDAtMS4wMDMtLjEyOC0xLjQ3Ny0uMzgzLS40NTItLjI3MS0uODEzLS42NzEtMS4wMzgtMS4xNDhsLTEuMDM5LTIuMDIzYy0uMTY5LS4zNzktLjI2Mi0uNzg5LS4yNzMtMS4yMDRhMi43NSAyLjc1IDAgMCAxIDEuMTQ4LTIuMjk2bDEuMjU4LS45Mjl2LTIuODQ1bC0xLjMxMi0uOTgzQy0uMTM2IDEwLjU0Ni0uNSA5Ljc5OS0uNSA4Ljg1MmMwLS4zNjYuMDkxLS43NjcuMjczLTEuMjA0bDEuMDQtMi4wMjNjLjI1NS0uNTExLjYtLjg5MyAxLjAzOC0xLjE0OC40NzQtLjI1NS45NjgtLjM4MyAxLjQ3Ny0uMzgzLjQwMiAwIC43NDcuMDc0IDEuMDQuMjE5bDEuNjQxLjY1NiAyLjM1LTEuNDIzLjM4My0xLjgwMkEyLjY4IDIuNjggMCAwIDEgOS43MjcuMTU2YTIuNjEgMi42MSAwIDAgMSAxLjc1LS42NTZoMS45MTNhMi42MSAyLjYxIDAgMCAxIDEuNzUuNjU2Yy41MTEuNDAzLjg0LjkyOS45ODUgMS41ODZsLjMyNyAxLjgwNiAyLjQwNiAxLjQyMSAxLjY0Mi0uNjU2Yy4yOTEtLjE0NS42MzctLjIxOSAxLjA0LS4yMTlhMi43NyAyLjc3IDAgMCAxIDEuNDIxLjM4M2MuNDczLjI1NS44NC42MzcgMS4wOTQgMS4xNDhsLjk4NSAyLjAyM2MuMjE3LjM2Ni4zMjcuNzg0LjMyNyAxLjI1OCAwIC45MS0uMzgzIDEuNjQyLTEuMTQ4IDIuMTg4bC0xLjMxMi45ODV2Mi44NDRsMS4zMTMuOTI4Yy43NjUuNTg1IDEuMTQ4IDEuMzMyIDEuMTQ4IDIuMjQzIDAgLjQzOC0uMTEuODU4LS4zMjkgMS4yNThsLS45ODMgMi4wMjNjLS4yNTYuNTExLS42MTkuODkyLTEuMDk0IDEuMTQ4LS40MzcuMjU2LS45MS4zODMtMS40MjMuMzgzLS4zNjQgMC0uNzEtLjA1NC0xLjAzOC0uMTY1bC0xLjY0Mi0uNzEtMi40MDYgMS40MjMtLjMyNyAxLjgwMmMtLjE0Ny42NTgtLjQ3NCAxLjE4Ni0uOTg1IDEuNTg3YTIuNjEgMi42MSAwIDAgMS0xLjc1LjY1NnptLTcuMzgzLTguMjU4Yy40NzQgMCAuOTQ5LjE0NyAxLjQyMy40MzhsMi40MDYgMS40MjNjLjczLjQzOCAxLjE0OCAxLjA0IDEuMjU4IDEuODA0bC4zODIgMS44MDRoMS45MTVsLjMyOS0xLjgwNGMuMTgyLS44MDIuNjItMS40MDQgMS4zMTMtMS44MDRsMi4zNTItMS40MjNhMy4wNiAzLjA2IDAgMCAxIDEuNTI5LS40MzdjLjE4NCAwIC4zNDYuMDE3LjQ5NC4wNTRhNC4xNyA0LjE3IDAgMCAxIC40OTIuMTY1bDEuNjQyLjY1Ni45ODMtMi4wMjMtMS4yNTgtLjkyOWMtLjc2NS0uNTg0LTEuMTQ4LTEuMzMtMS4xNDgtMi4yNDJ2LTIuODQ1YzAtLjkxLjM4My0xLjY1NyAxLjE0OC0yLjI0bDEuMjU4LS45MzEtLjk4NS0yLjAyMy0xLjY0LjcxYy0uMzM1LjExMS0uNjg2LjE2Ni0xLjA0LjE2NS0uNTgzIDAtMS4wNzUtLjEyOC0xLjQ3Ny0uMzgzbC0yLjM1LTEuNDc3YTIuNjggMi42OCAwIDAgMS0xLjMxMi0xLjgwNEwxMy4zOSAyLjI5aC0xLjkxNWwtLjM4MiAxLjgwNGMtLjExLjc2Ni0uNTI4IDEuMzY3LTEuMjU4IDEuODA0TDcuNDgzIDcuMzc1Yy0uNDAxLjI1NS0uODkzLjM4My0xLjQ3NS4zODMtLjMyOSAwLS42OTMtLjA1Ni0xLjA5NC0uMTY1bC0xLjY0MS0uNzEtLjk4NSAyLjAyMyAxLjMxMy45MjljLjc2Ny41ODUgMS4xNSAxLjMzIDEuMTUgMi4yNDR2Mi44NDRjMCAuOTEtLjM4MyAxLjY1Ny0xLjE0OCAyLjI0bC0xLjMxMi45MzEgMS4wMzggMi4wMjMgMS42NDEtLjY1NmMuMjktLjE0NS42MzctLjIxOSAxLjA0LS4yMTl6bTYuNC0uMTY1YTUuNTcgNS41NyAwIDAgMS0yLjE4Ny0uNDM3Yy0uNjUzLS4yODktMS4yNDYtLjY5Ny0xLjc1LTEuMjAyYTUuNzcgNS43NyAwIDAgMS0xLjIwNC0xLjc1IDUuNTggNS41OCAwIDAgMS0uNDM3LTIuMTg3IDUuMjEgNS4yMSAwIDAgMSAuNDM4LTIuMTMzYy4yOTItLjY5My42OTMtMS4yOTUgMS4yMDQtMS44MDRzMS4wOTQtLjkxIDEuNzUtMS4yMDRhNS42IDUuNiAwIDAgMSAyLjE4OC0uNDM3Yy43NjUgMCAxLjQ5NS4xNDcgMi4xODguNDM4czEuMjk1LjY5MyAxLjgwNCAxLjIwNC45MSAxLjExMSAxLjIwNCAxLjgwNGMuMjkxLjY1Ni40MzggMS4zNjguNDM4IDIuMTMzYTUuNiA1LjYgMCAwIDEtLjQzNyAyLjE4OGMtLjI5LjY1My0uNjk4IDEuMjQ2LTEuMjA0IDEuNzUtLjUxMS41MTEtMS4xMTEuOTEtMS44MDQgMS4yMDRzLTEuNDIzLjQzNi0yLjE4Ny40MzZ6bTAtOC4zNjVjLS43NjcgMC0xLjQyMy4yNzEtMS45NjkuODE5LS4yNjQuMjU1LS40NzMuNTYxLS42MTQuODk5cy0uMjExLjcwMy0uMjA2IDEuMDY5YzAgLjc2Ny4yNzMgMS40MjMuODIxIDEuOTY5czEuMjAyLjgyMSAxLjk2OS44MjFjLjgwMiAwIDEuNDc3LS4yNzMgMi4wMjMtLjgyMXMuODIxLTEuMjA0LjgyMS0xLjk2OS0uMjczLTEuNDIzLS44MjEtMS45NjlhMi43NSAyLjc1IDAgMCAwLS45MjctLjYyYy0uMzQ4LS4xNDEtLjcyMS0uMjA4LTEuMDk2LS4xOTl6Ii8+JiN4YTs8L3N2Zz4=;" vertex="1" parent="1">
          <mxGeometry x="270" y="130" width="130" height="140" as="geometry" />
        </mxCell>
        <mxCell id="e2CYN-9ukdaPcZ9q1EN0-5" value="&lt;span style=&quot;color: rgb(0, 0, 0); font-family: Helvetica; font-size: 12px; font-style: normal; font-variant-ligatures: normal; font-variant-caps: normal; font-weight: 400; letter-spacing: normal; orphans: 2; text-align: center; text-indent: 0px; text-transform: none; widows: 2; word-spacing: 0px; -webkit-text-stroke-width: 0px; white-space: normal; background-color: rgb(251, 251, 251); text-decoration-thickness: initial; text-decoration-style: initial; text-decoration-color: initial; float: none; display: inline !important;&quot;&gt;Feed Product Descriptions from NY/NJ Data into fine-tuned BERT model for HS code classification&lt;/span&gt;" style="text;whiteSpace=wrap;html=1;" vertex="1" parent="1">
          <mxGeometry x="600" y="252.5" width="190" height="37.5" as="geometry" />
        </mxCell>
        <mxCell id="e2CYN-9ukdaPcZ9q1EN0-9" value="" style="image;aspect=fixed;perimeter=ellipsePerimeter;html=1;align=center;shadow=0;dashed=0;spacingTop=3;image=img/lib/active_directory/mac_client.svg;" vertex="1" parent="1">
          <mxGeometry x="633.6" y="140" width="112.8" height="120" as="geometry" />
        </mxCell>
        <mxCell id="e2CYN-9ukdaPcZ9q1EN0-10" value="&lt;span style=&quot;color: rgb(0, 0, 0); font-family: Helvetica; font-size: 12px; font-style: normal; font-variant-ligatures: normal; font-variant-caps: normal; font-weight: 400; letter-spacing: normal; orphans: 2; text-align: center; text-indent: 0px; text-transform: none; widows: 2; word-spacing: 0px; -webkit-text-stroke-width: 0px; white-space: normal; background-color: rgb(251, 251, 251); text-decoration-thickness: initial; text-decoration-style: initial; text-decoration-color: initial; display: inline !important; float: none;&quot;&gt;Feed container numbers into APM online tracking API to get vessel discharge and gate-out time stamps&lt;/span&gt;" style="text;whiteSpace=wrap;html=1;" vertex="1" parent="1">
          <mxGeometry x="478.77000000000004" y="-20" width="150" height="60" as="geometry" />
        </mxCell>
        <mxCell id="e2CYN-9ukdaPcZ9q1EN0-11" value="&lt;span style=&quot;color: rgb(0, 0, 0); font-family: Helvetica; font-size: 12px; font-style: normal; font-variant-ligatures: normal; font-variant-caps: normal; font-weight: 400; letter-spacing: normal; orphans: 2; text-align: center; text-indent: 0px; text-transform: none; widows: 2; word-spacing: 0px; -webkit-text-stroke-width: 0px; white-space: normal; background-color: rgb(251, 251, 251); text-decoration-thickness: initial; text-decoration-style: initial; text-decoration-color: initial; display: inline !important; float: none;&quot;&gt;Webscrape last months records from NY/NJ Import Genius Shipping Manifest Dataset&lt;/span&gt;&lt;br class=&quot;Apple-interchange-newline&quot;&gt;" style="text;whiteSpace=wrap;html=1;" vertex="1" parent="1">
          <mxGeometry x="522.17" y="-250" width="120" height="40" as="geometry" />
        </mxCell>
        <mxCell id="e2CYN-9ukdaPcZ9q1EN0-17" style="edgeStyle=orthogonalEdgeStyle;rounded=0;orthogonalLoop=1;jettySize=auto;html=1;entryX=0.5;entryY=0;entryDx=0;entryDy=0;" edge="1" parent="1" source="e2CYN-9ukdaPcZ9q1EN0-13" target="e2CYN-9ukdaPcZ9q1EN0-14">
          <mxGeometry relative="1" as="geometry" />
        </mxCell>
        <mxCell id="e2CYN-9ukdaPcZ9q1EN0-18" value="&lt;span style=&quot;font-size: 12px; background-color: rgb(251, 251, 251);&quot;&gt;Clean data and&amp;nbsp;&lt;/span&gt;&lt;div&gt;&lt;span style=&quot;font-size: 12px; background-color: rgb(251, 251, 251);&quot;&gt;prepare for NLP.&amp;nbsp;&lt;/span&gt;&lt;/div&gt;&lt;div&gt;&lt;span style=&quot;font-size: 12px; background-color: rgb(251, 251, 251);&quot;&gt;Filter to individual&amp;nbsp;&lt;/span&gt;&lt;div style=&quot;font-size: 12px; background-color: rgb(251, 251, 251);&quot;&gt;container number&lt;/div&gt;&lt;div style=&quot;font-size: 12px; background-color: rgb(251, 251, 251);&quot;&gt;&amp;nbsp;level&lt;/div&gt;&lt;/div&gt;" style="edgeLabel;html=1;align=center;verticalAlign=middle;resizable=0;points=[];" vertex="1" connectable="0" parent="e2CYN-9ukdaPcZ9q1EN0-17">
          <mxGeometry x="-0.0724" y="-2" relative="1" as="geometry">
            <mxPoint as="offset" />
          </mxGeometry>
        </mxCell>
        <mxCell id="e2CYN-9ukdaPcZ9q1EN0-13" value="" style="shape=image;editableCssRules=.*;verticalLabelPosition=bottom;labelBackgroundColor=default;verticalAlign=top;aspect=fixed;imageAspect=0;image=data:image/svg+xml,PHN2ZyB4bWxucz0iaHR0cDovL3d3dy53My5vcmcvMjAwMC9zdmciIHZpZXdCb3g9Ii0wLjUgLTAuNSA0MC45NDEgNDUuMDg4IiBoZWlnaHQ9IjQ1LjA4OCIgd2lkdGg9IjQwLjk0MSI+JiN4YTsJICA8c3R5bGUgdHlwZT0idGV4dC9jc3MiPi5zdDAgeyBzdG9wLWNvbG9yOiByZ2IoMCwgMjA2LCAxNzIpOyB9IC5zdDEgeyBzdG9wLWNvbG9yOiByZ2IoNywgMTMxLCAxNDMpOyB9IDwvc3R5bGU+JiN4YTsJPGRlZnM+JiN4YTsJCTxsaW5lYXJHcmFkaWVudCBncmFkaWVudFVuaXRzPSJ1c2VyU3BhY2VPblVzZSIgeTI9IjM3LjczOCIgeDI9IjM3LjYwMiIgeTE9IjUuOSIgeDE9IjMuMjEzIiBpZD0iQSI+JiN4YTsJCQk8c3RvcCBjbGFzcz0ic3QwIi8+JiN4YTsJCQk8c3RvcCBjbGFzcz0ic3QxIiBvZmZzZXQ9IjEiLz4mI3hhOwkJPC9saW5lYXJHcmFkaWVudD4mI3hhOwk8L2RlZnM+JiN4YTsJPHBhdGggZmlsbD0idXJsKCNBKSIgZD0iTTM4LjE0NyA0LjA4OGMuNzA2LjU4OCAxLjI2NSAxLjIzNSAxLjY3NiAxLjk0MS40MTIuNjQ3LjYxOCAxLjQ0MS42MTggMi4zODJ2MjcuMzUzYzAgLjg4Mi0uMjM1IDEuNjc2LS43MDYgMi4zODJzLTEgMS4zNTMtMS41ODggMS45NDFjLS41MjkuNDcxLTEuMjA2LjkxMi0yLjAzIDEuMzI0LS43NjUuNDEyLTEuNTg4Ljc5NC0yLjQ3MSAxLjE0Ny0xLjgyMy43MDYtMy45MTIgMS4yMDYtNi4yNjUgMS41LTIuMjk0LjM1My00Ljc2NS41MjktNy40MTIuNTI5cy01LjE0Ny0uMTc2LTcuNS0uNTI5Yy0yLjI5NC0uMjk0LTQuMzUzLS43OTQtNi4xNzYtMS41bC0yLjQ3MS0uOTdhOC42NCA4LjY0IDAgMCAxLTIuMDI5LTEuNUMuMjY1IDM4Ljg1My0uNSAzNy40MTItLjUgMzUuNzY1VjguNDEyYzAtLjk0MS4yMzUtMS43MzUuNzA2LTIuMzgyLjQ3MS0uNzA2IDEtMS4zNTMgMS41ODgtMS45NDEgMS4xNzYtMSAyLjY3Ni0xLjg1MyA0LjUtMi41NTlDOC4xMTguODgyIDEwLjE3Ni4zODIgMTIuNDcxLjAyOWMyLjM1My0uMzUzIDQuODUzLS41MjkgNy41LS41MjlzNS4xMTguMTc2IDcuNDEyLjUyOWMyLjM1My4zNTMgNC40NDEuODUzIDYuMjY1IDEuNS44ODIuMzUzIDEuNzA2LjczNSAyLjQ3MSAxLjE0Ny44MjQuMzUzIDEuNS44MjQgMi4wMyAxLjQxMnptLTIuMjA2IDE5LjMyNGMtMi43NjUuOTQxLTUuMzgyIDEuNjc2LTcuODUzIDIuMjA2LTIuNDEyLjUyOS01LjExOC43OTQtOC4xMTguNzk0LTIuNjQ3IDAtNS4xNDctLjE3Ny03LjUtLjUyOS0yLjI5NC0uMzUzLTQuMzUzLS44NTMtNi4xNzYtMS41LS45NDEtLjI5NC0xLjcwNi0uNjE4LTIuMjk0LS45NzF2My4xNzdsLjE3Ni4zNTNjLjA1OS4xMTguMjM1LjMyNC41MjkuNjE4Ljc2NS43MDYgMS43OTQgMS4yOTQgMy4wODggMS43NjUgMS4zNTMuNDcxIDIuNzY1Ljg1MyA0LjIzNSAxLjE0N2w0LjMyNC41MjkgMy42MTguMTc2YTUwLjQ1IDUwLjQ1IDAgMCAwIDcuOTQxLS42MThjMi41ODgtLjQ3IDUuMDI5LTEuNDcgNy4zMjMtMyAuMzUzLS4yMzUuNTU5LS40NDEuNjE4LS42MTguMDU5LS4xMTguMDg4LS4yMzUuMDg4LS4zNTN6bTAtOS4wODhjLTIuNzY1Ljk0MS01LjM4MiAxLjY3Ni03Ljg1MyAyLjIwNi0yLjQxMi41MjktNS4xMTguNzk0LTguMTE4Ljc5NC0uODgyIDAtMi4wNTktLjA1OS0zLjUyOS0uMTc2bC00LjU4OC0uNTI5LTQuNS0uODgyYy0xLjQxMi0uNDEyLTIuNTI5LS44ODItMy4zNTMtMS40MTJWMTcuNWMwIC4wNTkuMDI5LjE0Ny4wODguMjY1LjExOC4wNTkuMjA2LjE0Ny4yNjUuMjY1bC4zNTMuMzUzYy43NjUuNzY1IDEuNzk0IDEuMzgyIDMuMDg4IDEuODUzIDEuMzUzLjQ3MSAyLjc2NS44NTMgNC4yMzUgMS4xNDdsNC4zMjQuNTI5IDMuNjE4LjE3NmMyLjcwNiAwIDUuMzUzLS4yMzUgNy45NDEtLjcwNnM1LjAyOS0xLjQ3MSA3LjMyMy0zYy4zNTMtLjIzNS41NTktLjQ0MS42MTgtLjYxOC4wNTktLjExOC4wODgtLjIwNi4wODgtLjI2NXpNNC43MDYgNy41MjljLS4yOTQuMTE4LS41LjMyNC0uNjE4LjYxOC0uMDU5LjExOC0uMDg4LjIwNi0uMDg4LjI2NXMuMDI5LjE0Ny4wODguMjY1Yy4xMTguMDU5LjIwNi4xNDcuMjY1LjI2NWwuMzUzLjM1M2MuNzY1Ljc2NSAxLjc5NCAxLjM4MiAzLjA4OCAxLjg1MyAxLjM1My40NzEgMi43NjUuODUzIDQuMjM1IDEuMTQ3bDQuMzI0LjUyOSAzLjYxOC4xNzZjMi40MTIgMCA0LjY0Ny0uMTQ3IDYuNzA2LS40NDEgMi4wNTktLjM1MyAzLjg1My0uODI0IDUuMzgyLTEuNDEybDMuMTc2LTEuODUzYy4zNTMtLjIzNS41NTktLjQ0MS42MTgtLjYxOC4wNTktLjExOC4wODgtLjIwNi4wODgtLjI2NS0uMDU5LS4wNTktLjExNy0uMTQ3LS4xNzYtLjI2NXMtLjIzNS0uMzI0LS41MjktLjYxOGMtLjc2NS0uNzY1LTEuODIzLTEuMzgyLTMuMTc2LTEuODUzLTEuMjk0LS40NzEtMi42NzYtLjgyNC00LjE0Ny0xLjA1OS0xLjQ3MS0uMjk0LTIuOTQxLS41LTQuNDEyLS42MThsLTMuNTI5LS4xNzZjLTIuNzA2IDAtNS4zNTMuMjM1LTcuOTQxLjcwNlM3IDYgNC43MDYgNy41Mjl6bTMwLjUyOSAyOS4xMThjLjM1My0uMjM1LjU1OS0uNDQxLjYxOC0uNjE4LjA1OS0uMTE3LjA4OC0uMjA2LjA4OC0uMjY1VjMyLjVjLS4wNTkuMDU5LS4xMTcuMDg4LS4xNzYuMDg4cy0uMDg4LjAyOS0uMDg4LjA4OEgzNS41bC0uMTc2LjA4OGMtLjA1OS4wNTktLjExOC4wODgtLjE3Ni4wODgtMi42NDcgMS01LjE0NyAxLjcwNi03LjUgMi4xMTgtMi4yOTQuMzUzLTQuODUzLjUyOS03LjY3Ni41MjktLjg4MiAwLTIuMDU5LS4wNTktMy41MjktLjE3NmwtNC41ODgtLjUyOS00LjUtLjg4MkM1Ljk0MSAzMy41IDQuODI0IDMzLjAyOSA0IDMyLjV2My4yNjVjMCAuMDU5LjAyOS4xNDcuMDg4LjI2NS4wNTkuMTc2LjI2NS4zODMuNjE4LjYxOC43NjUuNzY1IDEuNzk0IDEuMzgyIDMuMDg4IDEuODUzIDEuMzUzLjQ3MSAyLjc2NS44NTMgNC4yMzUgMS4xNDdsNC4zMjQuNTI5IDMuNjE4LjA4OGMyLjcwNiAwIDUuMzUzLS4yMDYgNy45NDEtLjYxOCAyLjU4OC0uNDcxIDUuMDI5LTEuNDcgNy4zMjMtM3oiLz4mI3hhOzwvc3ZnPg==;" vertex="1" parent="1">
          <mxGeometry x="642.17" y="-270" width="95.67" height="105" as="geometry" />
        </mxCell>
        <mxCell id="e2CYN-9ukdaPcZ9q1EN0-21" style="edgeStyle=orthogonalEdgeStyle;rounded=0;orthogonalLoop=1;jettySize=auto;html=1;entryX=0.5;entryY=0;entryDx=0;entryDy=0;" edge="1" parent="1" source="e2CYN-9ukdaPcZ9q1EN0-14" target="e2CYN-9ukdaPcZ9q1EN0-9">
          <mxGeometry relative="1" as="geometry" />
        </mxCell>
        <mxCell id="e2CYN-9ukdaPcZ9q1EN0-14" value="" style="shape=image;editableCssRules=.*;verticalLabelPosition=bottom;labelBackgroundColor=default;verticalAlign=top;aspect=fixed;imageAspect=0;image=data:image/svg+xml,PHN2ZyB4bWxucz0iaHR0cDovL3d3dy53My5vcmcvMjAwMC9zdmciIHZpZXdCb3g9Ii0wLjUgLTAuNSAyOCAyNi41MzgiIGhlaWdodD0iMjYuNTM4IiB3aWR0aD0iMjgiPiYjeGE7CSAgPHN0eWxlIHR5cGU9InRleHQvY3NzIj4mI3hhOwkJLnN0MHtzdG9wLWNvbG9yOiMwMGNlYWM7fSYjeGE7CQkuc3Qxe3N0b3AtY29sb3I6IzA3ODM4Zjt9JiN4YTsJICA8L3N0eWxlPiYjeGE7CTxkZWZzPiYjeGE7CQk8bGluZWFyR3JhZGllbnQgZ3JhZGllbnRVbml0cz0idXNlclNwYWNlT25Vc2UiIHkyPSIyNS4wNDgiIHgyPSIyMi4yODYiIHkxPSIzLjI2NyIgeDE9IjIuMDM5IiBpZD0iQSI+JiN4YTsJCQk8c3RvcCBjbGFzcz0ic3QwIi8+JiN4YTsJCQk8c3RvcCBjbGFzcz0ic3QxIiBvZmZzZXQ9IjEiLz4mI3hhOwkJPC9saW5lYXJHcmFkaWVudD4mI3hhOwk8L2RlZnM+JiN4YTsJPHBhdGggZmlsbD0idXJsKCNBKSIgZD0iTTIzLjI5MS0uNDk5QTQuMDYgNC4wNiAwIDAgMSAyNi4yNzMuNzI4Yy44MTcuODE3IDEuMjI3IDEuNzkyIDEuMjI3IDIuOTIydjIuODA2YzAgLjQzLS4xMzcuNzgtLjQxIDEuMDUzLS4yNzcuMjM1LS42My4zNTktLjk5My4zNS0uMzYzLjAxLS43MTYtLjExNS0uOTkzLS4zNWExLjQyIDEuNDIgMCAwIDEtLjMxNC0uNDg0Yy0uMDctLjE4MS0uMTAzLS4zNzUtLjA5Ni0uNTY5VjMuNjQ5Yy4wMDctLjE3Ny0uMDI2LS4zNTMtLjA5Ny0uNTE1YTEuMTcgMS4xNyAwIDAgMC0uMzEyLS40MjEgMS4zNSAxLjM1IDAgMCAwLS45OTMtLjQwOEgzLjcwOWExLjM1IDEuMzUgMCAwIDAtLjk5My40MDggMS4xNyAxLjE3IDAgMCAwLS40MS45MzV2MS40MDNIOS4zMmMuMzkxIDAgLjcyMi4xMzcuOTk1LjQxYTEuMzUgMS4zNSAwIDAgMSAuMzA3LjQ1NGMuMDcuMTcxLjEwNC4zNTQuMTAxLjUzOSAwIC40My0uMTM3Ljc4LS40MDggMS4wNTMtLjI3Ny4yMzUtLjYzMi4zNi0uOTk1LjM1SDIuMzA2djEyLjYyNmMwIC4zOTEuMTM3LjcyMi40MS45OTUuMTI5LjEzMi4yODQuMjM2LjQ1NC4zMDdzLjM1NC4xMDUuNTM5LjEwMWgzLjUwN2MuMzkxIDAgLjcyMi4xMzcuOTk1LjQxLjI3MS4yMzQuNDA4LjU2NS40MDguOTkzLjAwNC4xODUtLjAzMS4zNjktLjEwMS41NHMtLjE3NS4zMjYtLjMwNy40NTVjLS4yNzcuMjM1LS42MzIuMzYtLjk5NS4zNUgzLjcwOWMtMS4xMyAwLTIuMTIzLS40MS0yLjk4Mi0xLjIyN0EzLjk5IDMuOTkgMCAwIDEtLjUgMjAuNDg0VjMuNjQ5Qy0uNSAyLjUyLS4wOSAxLjU0NS43MjcuNzI4IDEuNTg2LS4wOTIgMi41NzktLjQ5OSAzLjcwOS0uNDk5em0tNS40OTYgNi45NTVjMS4zNjYgMCAyLjYzMi4yNzMgMy44MDEuODE5YTkuMjQgOS4yNCAwIDAgMSAzLjA0IDIuMTA0Yy44OTYuODk2IDEuNTk3IDEuOTI4IDIuMTA0IDMuMDk4cy43NTkgMi40MzUuNzU5IDMuNzk5Yy4wMDQgMS4zMDUtLjI1NCAyLjU5OC0uNzU5IDMuODAxLS40OTggMS4xNTctMS4yMTMgMi4yMDgtMi4xMDQgMy4wOTgtLjkwNC45MDEtMS45NzcgMS42MTYtMy4xNTcgMi4xMDRhOS40NSA5LjQ1IDAgMCAxLTMuNzk5Ljc1OWMtMS4zMDQuMDA0LTIuNTk2LS4yNTQtMy43OTktLjc1OS0xLjE1Ny0uNDk4LTIuMjA4LTEuMjEzLTMuMDk4LTIuMTA0YTkuOTIgOS45MiAwIDAgMS0yLjEwNC0zLjA5OGMtLjUwNi0xLjIwMy0uNzY1LTIuNDk2LS43NjEtMy44MDEgMC0xLjM2NC4yNTQtMi42My43NjEtMy43OTlhOS41NCA5LjU0IDAgMCAxIDIuMDQzLTMuMDk4IDkuOTIgOS45MiAwIDAgMSAzLjEtMi4xMDQgOS4xMyA5LjEzIDAgMCAxIDMuNzk3LS44MTl6bTUuNDk2IDUuNjEyYy0uNzQxLS45MzUtMS41OTgtMS42MTYtMi41NzItMi4wNDQuMTk1LjMxLjM1Mi42NDIuNDY4Ljk5MWwuNDY4IDEuMDUzem0tNS42MTItMS43NTNjLS4yNzMuNDY4LS41NjUgMS4wNTEtLjg3NyAxLjc1M2gxLjgxM2MtLjMxMi0uNzc4LS42MjMtMS4zNjQtLjkzNS0xLjc1M3ptLTYuOTU2IDUuOTYxdi43MDFsLjExOC43MDFoMi4yNzhhNC4yNiA0LjI2IDAgMCAxLS4wNTYtLjcwMXYtLjcwMS0uNzAxYzAtLjIzNC4wMTktLjQ2OC4wNTYtLjcwMWgtMi4yNzZsLS4xMTguNzAxem0xLjQwMyA0LjIwOWMuNzQxLjkzNSAxLjU5NyAxLjYxOCAyLjU3MiAyLjA0NmwtLjUyNi0uOTM1LS40MS0xLjExMXptMS42MzctOC40MTdsLjQxLTEuMDUxYTguMDIgOC4wMiAwIDAgMSAuNTI2LS45OTNjLS45NzMuNDI4LTEuODMxIDEuMTA5LTIuNTcyIDIuMDQ1em0zLjkxNyAxMC4xNzJjLjE5NS0uMjczLjM1Mi0uNTQ2LjQ2OC0uODE5bC40NjgtLjkzNWgtMS44MTJ6bTEuNzU1LTQuNTZhMi4yNCAyLjI0IDAgMCAwIC4xMTYtLjcwMXYtLjcwMS0uNzAxYTIuMTQgMi4xNCAwIDAgMC0uMTE4LS43MDFoLTMuNDQ1YTIuMjEgMi4yMSAwIDAgMC0uMTE4LjcwMXYxLjQwM2EyLjE5IDIuMTkgMCAwIDAgLjExOC43MDFoMy40NDl6bTEuMjg1IDQuODUyYy45NzMtLjQzIDEuODMzLTEuMTExIDIuNTcyLTIuMDQ2aC0xLjYzN2wtLjQ2OCAxLjExMWE1LjIzIDUuMjMgMCAwIDEtLjQ2OC45MzV6bTMuODU5LTQuODUyYy4wMzctLjIzNC4wNTYtLjQ2OC4wNTYtLjcwMS4wNzctLjQ2NS4wNzctLjkzOSAwLTEuNDAzIDAtLjIzNC0uMDE5LS40NjgtLjA1Ni0uNzAxaC0yLjI4MmE0LjA0IDQuMDQgMCAwIDEgLjA2LjcwMXYxLjQwM2MwIC4yMzQtLjAxOS40NjgtLjA1OC43MDF6Ii8+JiN4YTs8L3N2Zz4=;" vertex="1" parent="1">
          <mxGeometry x="632.3299999999998" y="-30" width="114.07" height="110" as="geometry" />
        </mxCell>
        <mxCell id="e2CYN-9ukdaPcZ9q1EN0-19" value="&lt;span style=&quot;color: rgb(0, 0, 0); font-family: Helvetica; font-size: 12px; font-style: normal; font-variant-ligatures: normal; font-variant-caps: normal; font-weight: 400; letter-spacing: normal; orphans: 2; text-align: center; text-indent: 0px; text-transform: none; widows: 2; word-spacing: 0px; -webkit-text-stroke-width: 0px; white-space: normal; background-color: rgb(251, 251, 251); text-decoration-thickness: initial; text-decoration-style: initial; text-decoration-color: initial; display: inline !important; float: none;&quot;&gt;Streamlit app interactive dashboard for continued data analysis&lt;/span&gt;" style="text;whiteSpace=wrap;html=1;" vertex="1" parent="1">
          <mxGeometry x="962.39" y="50" width="140" height="60" as="geometry" />
        </mxCell>
        <mxCell id="e2CYN-9ukdaPcZ9q1EN0-20" value="" style="shape=image;editableCssRules=.*;verticalLabelPosition=bottom;labelBackgroundColor=default;verticalAlign=top;aspect=fixed;imageAspect=0;image=data:image/svg+xml,PHN2ZyB4bWxucz0iaHR0cDovL3d3dy53My5vcmcvMjAwMC9zdmciIHZpZXdCb3g9Ii0wLjUgLTAuNSAyOCAyMy4zNDMiIGhlaWdodD0iMjMuMzQzIiB3aWR0aD0iMjgiPiYjeGE7CSAgPHN0eWxlIHR5cGU9InRleHQvY3NzIj4uc3QwIHsgc3RvcC1jb2xvcjogcmdiKDE1NSwgMTE4LCAyNTUpOyB9IC5zdDEgeyBzdG9wLWNvbG9yOiByZ2IoNzEsIDEyLCAyMzcpOyB9IDwvc3R5bGU+JiN4YTsJPGRlZnM+JiN4YTsJCTxsaW5lYXJHcmFkaWVudCBncmFkaWVudFVuaXRzPSJ1c2VyU3BhY2VPblVzZSIgeTI9IjI0LjIxNyIgeDI9IjE5LjU0IiB5MT0iMi44MTMiIHgxPSIyLjAzOSIgaWQ9IkEiPiYjeGE7CQkJPHN0b3AgY2xhc3M9InN0MCIvPiYjeGE7CQkJPHN0b3AgY2xhc3M9InN0MSIgb2Zmc2V0PSIxIi8+JiN4YTsJCTwvbGluZWFyR3JhZGllbnQ+JiN4YTsJPC9kZWZzPiYjeGE7CTxwYXRoIGZpbGw9InVybCgjQSkiIGQ9Ik0xMy41MjcgMTguMTg2djIuM2gxLjE1Yy43NjggMCAxLjE1LjQwMyAxLjE1IDEuMjA2LjAwNC4xNTItLjAyMi4zMDQtLjA3OS40NDVzLS4xNDEuMjctLjI0OS4zNzdjLS4xODIuMjE3LS40NTYuMzI4LS44MjIuMzI4SDcuNjY0Yy0uMTUyLjAwNC0uMzAzLS4wMjMtLjQ0NC0uMDhzLS4yNjktLjE0Mi0uMzc2LS4yNS0uMTkzLS4yMzUtLjI1LS4zNzYtLjA4NC0uMjkyLS4wOC0uNDQ0YzAtLjM2Ni4xMS0uNjU3LjMzLS44NzcuMTA3LS4xMDguMjM1LS4xOTMuMzc2LS4yNXMuMjkyLS4wODQuNDQ0LS4wOGgzLjUwN3YtMi4zSDMuMDA3YTMuNTMgMy41MyAwIDAgMS0yLjUyMS0uOTg3IDMuNTMgMy41MyAwIDAgMS0uOTg1LTIuNTE5VjMuMDA5YzAtLjk4Ny4zMy0xLjgwOS45ODctMi40NjcuMzI3LS4zMzYuNzE5LS42MDIgMS4xNTItLjc4MnMuODk5LS4yNjggMS4zNjgtLjI2aDE4LjY4M0EzLjI1IDMuMjUgMCAwIDEgMjQuMTU2LjU0MmMuNjk0LjY1OCAxLjA0MSAxLjQ4IDEuMDQxIDIuNDY1djIuMzU2Yy4wMDQuMTUyLS4wMjIuMzA0LS4wNzkuNDQ1cy0uMTQxLjI3LS4yNDkuMzc3Yy0uMTE2LjExMi0uMjU0LjE5OC0uNDA0LjI1NXMtLjMxMS4wODItLjQ3Mi4wNzVjLS4xNTIuMDA0LS4zMDQtLjAyMy0uNDQ1LS4wOHMtLjI3LS4xNDItLjM3Ny0uMjUtLjE5My0uMjM2LS4yNS0uMzc3LS4wODQtLjI5My0uMDgtLjQ0NVYzLjAwOWMwLS43NjgtLjM4Mi0xLjE1Mi0xLjE1LTEuMTUySDMuMDA3Yy0uNzY4IDAtMS4xNS4zODQtMS4xNSAxLjE1djExLjY3MmMwIC43NjYuMzgyIDEuMTUgMS4xNSAxLjE1aDExLjY3Yy43NjggMCAxLjE1LjQwMyAxLjE1IDEuMjA2LjAwNC4xNTItLjAyMy4zMDMtLjA3OS40NDRzLS4xNDEuMjY5LS4yNDkuMzc2Yy0uMTgyLjIxOS0uNDU2LjMzLS44MjIuMzN6bTEyLjgyMi05LjM3Yy43NjYgMCAxLjE1LjQwMyAxLjE1IDEuMjA2djExLjY3Yy4wMDQuMTUyLS4wMjMuMzA0LS4wOC40NDVzLS4xNDIuMjctLjI1LjM3N2MtLjE4Mi4yMTctLjQ1Ni4zMjgtLjgyMi4zMjhoLTcuMDEzYy0uMTUyLjAwNC0uMzAzLS4wMjMtLjQ0NC0uMDhzLS4yNjktLjE0Mi0uMzc2LS4yNS0uMTkzLS4yMzUtLjI1LS4zNzYtLjA4NC0uMjkyLS4wOC0uNDQ0di0xMS42N2MwLS4zNjYuMTEtLjY1Ny4zMy0uODc3LjEwNy0uMTA4LjIzNi0uMTkzLjM3Ny0uMjVzLjI5My0uMDg0LjQ0NS0uMDh6bS01LjgwOSAyLjM1NnY4LjE2M2g0LjY1N3YtOC4xNjR6Ii8+JiN4YTs8L3N2Zz4=;" vertex="1" parent="1">
          <mxGeometry x="950" y="109.99999999999999" width="164.78" height="135.36" as="geometry" />
        </mxCell>
        <mxCell id="e2CYN-9ukdaPcZ9q1EN0-24" value="&lt;span style=&quot;color: rgb(0, 0, 0); font-family: Helvetica; font-size: 12px; font-style: normal; font-variant-ligatures: normal; font-variant-caps: normal; font-weight: 400; letter-spacing: normal; orphans: 2; text-align: center; text-indent: 0px; text-transform: none; widows: 2; word-spacing: 0px; -webkit-text-stroke-width: 0px; white-space: nowrap; background-color: rgb(251, 251, 251); text-decoration-thickness: initial; text-decoration-style: initial; text-decoration-color: initial; float: none; display: inline !important;&quot;&gt;Dwell time analysis and input&amp;nbsp;&lt;/span&gt;&lt;div&gt;&lt;span style=&quot;color: rgb(0, 0, 0); font-family: Helvetica; font-size: 12px; font-style: normal; font-variant-ligatures: normal; font-variant-caps: normal; font-weight: 400; letter-spacing: normal; orphans: 2; text-align: center; text-indent: 0px; text-transform: none; widows: 2; word-spacing: 0px; -webkit-text-stroke-width: 0px; white-space: nowrap; background-color: rgb(251, 251, 251); text-decoration-thickness: initial; text-decoration-style: initial; text-decoration-color: initial; float: none; display: inline !important;&quot;&gt;into simulation as parameters&lt;/span&gt;&lt;/div&gt;" style="text;whiteSpace=wrap;html=1;" vertex="1" parent="1">
          <mxGeometry x="950" y="260" width="210" height="30" as="geometry" />
        </mxCell>
        <mxCell id="e2CYN-9ukdaPcZ9q1EN0-27" value="*&lt;i&gt;Note: Has HS code&lt;/i&gt;" style="text;html=1;align=center;verticalAlign=middle;resizable=0;points=[];autosize=1;strokeColor=none;fillColor=none;" vertex="1" parent="1">
          <mxGeometry x="-27.159999999999997" y="252.5" width="130" height="30" as="geometry" />
        </mxCell>
        <mxCell id="e2CYN-9ukdaPcZ9q1EN0-28" value="&lt;i&gt;*Note: Doesn&#39;t have HS code&lt;/i&gt;" style="text;html=1;align=center;verticalAlign=middle;resizable=0;points=[];autosize=1;strokeColor=none;fillColor=none;" vertex="1" parent="1">
          <mxGeometry x="605" y="-300" width="180" height="30" as="geometry" />
        </mxCell>
      </root>
    </mxGraphModel>
  </diagram>
</mxfile>
